<?xml version="1.0" standalone="no"?>
<!DOCTYPE svg PUBLIC "-//W3C//DTD SVG 20010904//EN"
 "http://www.w3.org/TR/2001/REC-SVG-20010904/DTD/svg10.dtd">
<svg version="1.0" xmlns="http://www.w3.org/2000/svg"
 width="492.000000pt" height="483.000000pt" viewBox="0 0 492.000000 483.000000"
 preserveAspectRatio="xMidYMid meet">

<g transform="translate(0.000000,483.000000) scale(0.100000,-0.100000)"
fill="#000000" stroke="none">
<path d="M2400 4408 c-10 -13 -73 -108 -140 -212 -66 -105 -126 -193 -133
-198 -6 -4 -118 -8 -247 -8 -129 0 -240 -4 -247 -8 -25 -16 -31 -65 -33 -244
-1 -240 4 -252 108 -283 30 -9 52 -21 52 -29 0 -16 -15 -40 -216 -358 -78
-123 -149 -238 -158 -256 -17 -33 -17 -33 14 -69 36 -41 35 -63 -6 -125 -13
-21 -20 -38 -16 -38 5 0 74 102 154 228 80 125 208 324 283 442 76 118 143
218 149 222 6 4 221 8 478 8 401 0 469 -2 482 -15 8 -8 49 -70 92 -137 409
-649 680 -1062 689 -1048 3 5 10 10 14 10 16 0 39 -65 35 -97 -4 -34 5 -46 22
-35 36 23 46 121 18 174 -9 17 -31 51 -49 77 -18 25 -45 69 -59 96 -15 28 -41
73 -59 101 -18 28 -59 94 -92 148 -78 126 -90 144 -220 348 -232 361 -219 330
-143 353 28 8 62 25 75 37 23 21 23 24 23 243 0 202 -2 223 -18 238 -16 15
-49 17 -253 17 -173 0 -239 3 -251 13 -14 10 -70 92 -103 150 -5 9 -37 60 -70
113 -105 167 -133 190 -175 142z m118 -298 c34 -56 60 -105 57 -110 -8 -13
-262 -13 -270 0 -7 12 4 35 69 132 28 43 58 78 66 78 8 0 43 -45 78 -100z
m675 -182 c15 -8 17 -28 17 -193 0 -172 -1 -185 -19 -195 -13 -7 -269 -10
-759 -10 -629 0 -741 2 -751 14 -16 19 -10 92 7 89 6 -2 17 -4 23 -5 6 -2 17
13 24 32 8 23 19 36 33 38 19 3 22 -1 22 -31 0 -21 6 -37 15 -40 18 -7 19 -6
39 65 21 75 36 83 36 19 0 -42 4 -53 26 -70 64 -50 109 -13 148 123 20 67 16
86 -16 86 -21 0 -25 -8 -41 -78 -18 -80 -41 -127 -58 -117 -13 9 -11 63 6 119
18 58 8 76 -39 75 -17 -1 -41 2 -52 6 -19 6 -23 1 -36 -52 -11 -48 -18 -59
-37 -61 -21 -3 -22 -1 -19 48 3 47 1 53 -20 61 -27 10 -26 13 -42 -103 -7 -49
-16 -88 -21 -88 -6 0 -8 56 -7 132 3 132 3 132 28 138 40 10 1473 8 1493 -2z"/>
<path d="M3060 3858 c-50 -18 -86 -90 -62 -124 4 -5 24 -23 45 -39 47 -35 36
-53 -18 -31 -45 19 -45 19 -45 3 0 -17 52 -47 82 -47 28 0 68 26 68 45 0 7
-18 28 -40 45 -41 32 -51 65 -28 88 21 21 39 14 36 -14 -4 -33 27 -58 42 -34
16 24 11 76 -7 92 -26 22 -45 26 -73 16z"/>
<path d="M2135 3853 c-16 -3 -34 -9 -39 -14 -5 -5 -15 -50 -21 -100 -11 -87
-11 -91 9 -104 15 -10 32 -12 59 -5 21 4 41 11 44 13 11 12 -10 27 -38 27 -44
0 -36 34 9 38 24 2 32 8 32 23 0 14 -7 19 -26 19 -22 0 -25 4 -22 28 2 22 10
29 41 36 23 6 41 6 47 0 5 -5 5 -40 -1 -87 -7 -58 -7 -83 2 -93 15 -18 39 0
39 30 0 30 11 66 20 66 4 0 10 -14 14 -32 6 -33 23 -58 37 -58 5 0 18 18 29
39 31 62 43 62 35 2 -5 -34 -3 -51 4 -51 6 0 14 -1 17 -2 3 -2 17 24 29 57 13
33 24 58 26 55 1 -3 3 -15 4 -26 5 -49 16 -71 40 -82 58 -27 93 -1 125 91 26
74 26 113 0 127 -23 13 -22 16 -46 -85 -29 -126 -73 -156 -59 -41 14 124 15
121 -30 124 -22 1 -53 3 -69 5 -26 2 -34 -4 -60 -50 -17 -29 -35 -51 -41 -49
-5 1 -13 19 -16 40 -3 20 -11 42 -17 48 -11 11 -126 18 -177 11z"/>
<path d="M2700 3836 c-5 -13 -14 -61 -21 -106 -12 -76 -11 -83 5 -95 18 -14
83 -10 100 5 13 13 -3 30 -29 30 -13 0 -26 4 -29 8 -2 4 4 41 15 82 19 71 19
75 3 87 -25 18 -33 16 -44 -11z"/>
<path d="M2890 3853 c-38 -7 -50 -22 -50 -62 0 -20 -5 -56 -11 -80 -17 -74 3
-97 71 -83 47 10 55 42 10 42 -42 0 -38 33 5 40 36 6 41 34 7 38 -19 3 -23 9
-20 30 3 23 10 28 46 36 83 19 28 56 -58 39z"/>
<path d="M3314 3735 c0 -55 1 -76 3 -47 2 29 2 74 0 100 -2 26 -3 2 -3 -53z"/>
<path d="M2311 3398 c-4 -13 -11 -44 -14 -70 -5 -37 -3 -48 7 -48 8 0 16 9 19
20 7 27 37 26 37 -1 0 -60 48 41 50 104 0 30 -23 14 -32 -21 -11 -41 -38 -43
-38 -3 0 38 -17 49 -29 19z"/>
<path d="M2497 3396 c-48 -72 -23 -142 43 -121 30 9 25 28 -5 21 -34 -9 -43
16 -22 60 19 38 31 42 46 17 9 -15 12 -16 20 -4 15 24 -6 51 -38 51 -19 0 -34
-8 -44 -24z"/>
<path d="M2425 3280 c3 -5 8 -10 11 -10 2 0 4 5 4 10 0 6 -5 10 -11 10 -5 0
-7 -4 -4 -10z"/>
<path d="M1970 3126 c-51 -34 -67 -56 -81 -107 -18 -68 -6 -109 48 -164 26
-25 55 -51 65 -56 16 -9 18 -7 14 13 -35 162 -34 190 0 217 48 38 80 24 127
-51 29 -47 97 -26 97 29 0 26 -25 75 -49 97 -53 48 -164 59 -221 22z"/>
<path d="M2750 3139 c-87 -35 -133 -156 -65 -173 34 -9 48 0 70 40 22 41 54
58 88 45 51 -20 59 -54 37 -154 -21 -93 -13 -98 53 -34 42 40 60 65 64 90 11
67 -33 149 -99 183 -31 16 -111 18 -148 3z"/>
<path d="M3040 2883 c-6 -32 -13 -71 -16 -88 l-5 -30 15 33 c22 47 59 45 85
-5 21 -41 37 -53 116 -94 32 -16 50 -31 49 -42 -1 -9 2 -14 7 -11 26 16 -6 63
-43 64 -58 1 -94 49 -75 100 16 42 -5 78 -63 107 -25 12 -48 22 -52 22 -4 1
-12 -25 -18 -56z"/>
<path d="M1771 2834 c-41 -52 -48 -110 -25 -206 4 -20 1 -31 -15 -44 -12 -10
-21 -21 -21 -25 0 -3 21 -19 46 -35 62 -39 140 -143 160 -213 24 -82 72 -128
61 -58 -15 102 -61 300 -81 347 -13 30 -32 96 -41 145 -24 121 -43 142 -84 89z"/>
<path d="M3012 2730 c0 -14 2 -19 5 -12 2 6 2 18 0 25 -3 6 -5 1 -5 -13z"/>
<path d="M2977 2623 c-32 -99 -71 -284 -64 -309 3 -13 5 -9 6 10 0 16 7 37 14
45 25 30 45 96 56 191 7 52 14 105 18 118 3 12 3 22 0 22 -2 0 -16 -35 -30
-77z"/>
<path d="M1470 2620 c-41 -57 -70 -163 -70 -252 0 -120 57 -321 112 -402 66
-96 131 -141 225 -156 109 -17 105 -13 128 -122 3 -16 10 -28 16 -28 6 0 8 9
4 20 -4 12 0 26 9 36 9 8 16 31 16 50 0 18 7 51 15 71 8 21 19 58 23 83 10 60
33 60 45 0 6 -30 6 -64 -2 -101 -15 -74 -14 -89 6 -111 15 -16 15 -20 0 -35
-12 -15 -14 -33 -8 -104 5 -71 11 -93 34 -126 15 -21 27 -47 27 -56 0 -9 7
-17 15 -17 8 0 15 -6 15 -13 0 -8 8 -21 19 -31 25 -22 16 -62 -19 -88 -37 -27
-44 -54 -19 -79 10 -10 22 -18 26 -17 19 5 53 -15 53 -32 0 -22 39 -34 47 -14
3 8 16 14 29 14 31 0 34 -35 3 -37 -12 -1 -23 -4 -26 -7 -9 -9 32 -79 54 -94
21 -13 23 -12 34 12 9 20 9 32 -2 58 -8 18 -14 38 -14 43 -1 6 -7 20 -14 33
-13 25 -1 52 24 52 7 0 15 9 18 21 3 12 10 18 16 14 6 -3 11 -2 11 3 0 6 -7
13 -16 16 -16 6 -9 29 8 24 20 -7 38 -84 39 -172 2 -86 1 -89 -26 -110 -87
-67 -89 -70 -89 -127 -1 -73 26 -131 78 -166 37 -26 49 -28 131 -28 76 1 96 4
127 23 41 26 73 83 84 150 8 50 -15 91 -76 135 -34 24 -39 32 -44 84 -4 32 -2
83 4 113 6 30 12 66 15 78 5 33 8 34 34 16 16 -12 22 -23 18 -40 -2 -15 3 -30
14 -40 11 -10 19 -27 19 -39 0 -18 5 -21 30 -17 17 2 40 -2 54 -11 26 -18 36
-13 36 15 0 21 40 41 54 27 14 -13 46 35 39 59 -3 12 -9 22 -13 22 -4 0 -22
14 -40 30 -37 35 -36 67 4 94 42 27 93 149 99 234 4 62 1 76 -16 100 -11 15
-17 24 -12 20 4 -4 14 -3 22 3 16 14 18 99 2 99 -13 0 -3 149 11 163 16 17 40
-50 65 -181 8 -40 21 -83 30 -95 l15 -21 0 22 c0 34 30 101 48 106 10 3 50 12
90 21 159 33 240 140 308 404 30 116 31 198 3 282 -24 73 -54 135 -69 144 -21
13 -55 -5 -85 -46 -18 -25 -70 -68 -129 -107 -114 -76 -148 -117 -177 -216
-17 -57 -29 -79 -64 -111 -23 -22 -45 -48 -48 -57 -8 -21 -40 -24 -56 -4 -18
22 14 240 68 471 12 49 9 53 -18 20 -25 -32 -65 -163 -81 -263 -9 -52 -17 -75
-30 -82 -10 -5 -24 -27 -31 -47 -17 -54 -22 -59 -118 -106 -85 -41 -88 -42
-191 -42 -102 0 -107 1 -185 40 -88 43 -99 53 -116 105 -7 19 -23 45 -35 57
-13 12 -24 33 -24 47 0 34 -46 209 -64 243 -8 16 -24 37 -36 48 -23 20 -23 20
-17 0 15 -49 49 -206 58 -270 6 -38 17 -101 24 -140 13 -73 7 -105 -20 -105
-8 0 -21 13 -29 29 -8 15 -28 36 -43 46 -46 30 -61 53 -77 122 -23 103 -67
153 -216 243 -23 14 -62 49 -87 78 -24 28 -53 52 -63 52 -10 0 -28 -13 -40
-30z m770 -628 c0 -10 -5 -23 -11 -29 -9 -9 8 -21 62 -49 65 -33 83 -38 149
-38 65 -1 84 3 142 32 69 33 88 49 71 61 -6 3 -10 14 -10 24 0 21 57 23 117 5
35 -11 40 -17 40 -43 0 -35 -39 -65 -84 -65 -30 0 -118 -84 -167 -160 l-32
-50 -73 0 -72 0 -23 38 c-34 55 -118 148 -146 161 -13 6 -32 11 -41 11 -29 1
-62 36 -62 67 0 34 30 50 98 52 34 1 42 -2 42 -17z m60 -564 c0 -5 -4 -8 -8
-8 -15 0 -32 24 -32 45 0 19 2 18 20 -5 11 -14 20 -28 20 -32z m340 43 c0 -14
-49 -68 -50 -54 0 9 40 62 48 63 1 0 2 -4 2 -9z m127 -248 c-11 -10 -27 8 -27
30 l0 21 16 -22 c9 -13 14 -26 11 -29z"/>
<path d="M2145 2458 c11 -55 16 -68 26 -68 19 0 22 32 6 66 -21 44 -41 45 -32
2z"/>
<path d="M3011 2424 c-19 -25 -27 -44 -17 -44 2 0 13 16 25 35 24 42 21 45 -8
9z"/>
<path d="M2951 2289 c-6 -18 -9 -34 -7 -36 2 -2 9 10 15 28 6 18 9 34 7 36 -2
2 -9 -10 -15 -28z"/>
<path d="M2891 2233 c-1 -23 22 -32 34 -13 3 5 0 7 -9 4 -8 -3 -16 2 -19 13
-4 14 -5 14 -6 -4z"/>
<path d="M2200 2202 c0 -14 8 -26 23 -31 33 -13 34 -4 4 27 -27 26 -27 26 -27
4z"/>
<path d="M1157 2167 c-34 -14 -31 -24 38 -131 29 -44 61 -99 71 -121 11 -22
21 -42 25 -45 3 -3 20 -30 38 -60 18 -30 41 -64 51 -75 9 -11 20 -33 24 -49 4
-16 17 -43 30 -60 13 -17 44 -69 70 -116 26 -47 75 -130 109 -185 34 -55 76
-122 92 -149 17 -26 50 -80 76 -120 25 -39 59 -93 77 -121 49 -77 241 -374
294 -454 43 -64 51 -71 80 -71 26 1 37 8 53 33 l20 32 -32 50 c-18 27 -37 55
-41 60 -4 6 -40 62 -79 125 -111 179 -219 347 -332 518 -57 86 -111 170 -120
187 -25 44 -437 673 -459 700 -5 6 -17 23 -26 38 -20 30 -19 30 -59 14z"/>
<path d="M3647 2165 c2 -7 13 -11 24 -8 25 7 24 10 -5 15 -16 3 -23 1 -19 -7z"/>
<path d="M3700 2119 c0 -6 -15 -9 -37 -7 -33 3 -39 -1 -60 -32 -12 -19 -27
-40 -32 -46 -10 -13 -90 -135 -191 -294 -40 -63 -87 -137 -104 -165 -225 -353
-281 -442 -343 -537 -40 -61 -73 -116 -73 -122 1 -14 70 65 70 80 0 7 9 22 19
35 l19 24 8 -29 c4 -17 2 -36 -4 -45 -38 -57 -62 -118 -55 -139 8 -21 16 -13
78 79 80 116 177 262 332 501 235 364 303 472 303 479 0 5 17 37 38 71 63 105
79 158 47 158 -8 0 -15 -5 -15 -11z"/>
<path d="M2631 1066 c-33 -40 -29 -96 7 -96 34 0 68 84 41 101 -20 13 -35 11
-48 -5z"/>
<path d="M2747 983 c-24 -46 -25 -54 -11 -51 30 6 58 53 48 81 -9 24 -10 23
-37 -30z"/>
<path d="M2119 1023 c0 -5 -2 -19 -5 -32 -3 -16 3 -32 18 -48 41 -44 49 -26
18 43 -19 42 -29 53 -31 37z"/>
<path d="M2120 854 c0 -15 64 -117 67 -107 2 6 -10 34 -27 62 -30 48 -40 59
-40 45z"/>
<path d="M2883 790 c-26 -10 -29 -20 -11 -38 20 -20 34 -13 36 18 1 17 1 30 0
29 -2 0 -13 -4 -25 -9z"/>
<path d="M2240 655 c0 -15 34 -55 46 -55 23 0 16 17 -16 40 -16 12 -30 19 -30
15z"/>
<path d="M2350 572 c-22 -8 -30 -23 -30 -60 0 -30 2 -33 28 -30 16 2 31 12 37
26 13 30 25 28 25 -4 0 -21 3 -24 13 -15 10 8 17 7 25 -1 9 -9 12 -7 12 9 0
31 27 37 34 7 4 -16 13 -24 28 -24 20 0 21 1 4 13 -15 11 -16 17 -5 40 10 21
15 24 26 15 15 -12 28 -5 18 11 -8 15 -38 14 -53 -1 -9 -9 -15 -9 -24 0 -14
14 -64 16 -73 2 -4 -6 -14 -5 -28 4 -12 8 -29 11 -37 8z m20 -22 c0 -5 -5 -10
-11 -10 -5 0 -7 5 -4 10 3 6 8 10 11 10 2 0 4 -4 4 -10z m86 -17 c-10 -10 -19
5 -10 18 6 11 8 11 12 0 2 -7 1 -15 -2 -18z"/>
</g>
</svg>
